# xmcd
#
# Track frame offsets:
#	150
#	20880
#	36448
#	58179
#	73187
#	91498
#	123724
#	140950
#	164937
#	175552
#
# Disc length: 2611 seconds
#
# Revision: 0
# Processed by: cddbd v1.5.2PL0 Copyright (c) Steve Scherf et al.
# Submitted via: dBpowerAMP V4.0
#
DISCID=a40a310a
DTITLE=Various Artist - Yellow Dog Records 2005-2006 Promotional Sampler
DYEAR=2006
DGENRE=Blues
TTITLE0=Mark Lemhouse - Cluck Old Hen
TTITLE1=William Lee Ellis - The Call
TTITLE2=The Bo-Keys - Spanish Delight
TTITLE3=Mary Flower - Last Kind Word Blues
TTITLE4=Fiona Boyes - Chicken Wants Corn
TTITLE5=Calvin Newborn - The Streetwalker's Stroll
TTITLE6=Chris Cotton - Morgan City, Mississippi
TTITLE7=Terry Robb - Louise
TTITLE8=Bluff City Backsliders - Stay on the Right Side, Sister
TTITLE9=Big Joe Duskin - Mean and Strange
EXTD=
EXTT0=
EXTT1=
EXTT2=
EXTT3=
EXTT4=
EXTT5=
EXTT6=
EXTT7=
EXTT8=
EXTT9=
PLAYORDER=
